<svg height="512" viewBox="0 0 64 64" width="512" xmlns="http://www.w3.org/2000/svg"><g id="monster-7" data-name="monster"><path d="m57 32a24.962 24.962 0 0 1 -10 20v6a3 3 0 0 1 -6 0v-2.68a24.947 24.947 0 0 1 -18 0v2.68a3 3 0 0 1 -6 0v-6a25 25 0 0 1 0-40l3-9 3.33 5.55a25.023 25.023 0 0 1 17.34 0l3.33-5.55 3 9a24.962 24.962 0 0 1 10 20z" fill="#009698"/><path d="m42 26a10 10 0 1 1 -19.8-2h19.6a10.048 10.048 0 0 1 .2 2z" fill="#ffda44"/><path d="m27.97 42-2.97 5-3-5z" fill="#d80027"/><path d="m38 24a6 6 0 0 1 -12 0z" fill="#d80027"/><rect fill="#231f20" height="4" rx="1" width="2" x="31" y="23"/><path d="m19 41h26v2h-26z" fill="#57565c"/><path d="m41.8 24h-19.6a10 10 0 0 1 19.6 0z" fill="#acabb1"/><ellipse cx="16" cy="19.5" fill="#00b6bd" rx="4.5" ry="2" transform="matrix(.707 -.707 .707 .707 -9.102 17.025)"/></g></svg>