<?xml version="1.0" encoding="iso-8859-1"?>
<!-- Generator: Adobe Illustrator 19.0.0, SVG Export Plug-In . SVG Version: 6.00 Build 0)  -->
<svg version="1.1" id="Capa_1" xmlns="http://www.w3.org/2000/svg" xmlns:xlink="http://www.w3.org/1999/xlink" x="0px" y="0px"
	 viewBox="0 0 511.999 511.999" style="enable-background:new 0 0 511.999 511.999;" xml:space="preserve">
<path style="fill:#DBD9DC;" d="M503.872,207.242L503.872,207.242c-4.488,0-8.127-3.639-8.127-8.127v-16.254h16.254v16.254
	C511.999,203.603,508.36,207.242,503.872,207.242z"/>
<path style="fill:#5D5360;" d="M495.745,158.48h-9.521c-4.311,0-8.445-1.712-11.493-4.761l-1.972-1.972
	c-6.096-6.096-14.365-9.521-22.987-9.521h-84.058l24.381,34.83v97.93c0,14.545-12.653,25.854-27.107,24.228l-132.155-14.869
	c-49.118-6.407-92.672,31.836-92.671,81.37v0.828c0,19.285-10.435,37.403-27.639,46.116c-35.051,17.75-69.886-7.255-69.886-40.395
	v-67.499H24.383v65.581c0,42.582,33.103,77.827,75.601,80.495l0.8,0.05c42.6,2.758,78.011-30.977,78.011-72.984v-0.022
	c0-18.464,12.321-34.049,29.188-38.984c5.997-1.754,12.434-1.301,18.362,0.675l41.846,13.95l57.382,25.503
	c10.392,4.618,21.637,7.005,33.009,7.005h50.686c3.387,0,6.69-1.058,9.446-3.027l11.12-7.943
	c24.38-17.414,33.703-49.234,22.576-77.051l-28.286-78.426c4.672,2.516,9.944,3.908,15.404,3.908h7.455v-16.254
	c0-8.977,7.277-16.254,16.254-16.254h40.635c4.488,0,8.127-3.639,8.127-8.127v-8.127C511.999,165.757,504.722,158.48,495.745,158.48
	z"/>
<g>
	<path style="fill:#4B3F4E;" d="M495.745,215.369h-51.989c-10.607,0-20.547-5.176-26.629-13.865l-44.754-63.936l-13.317,9.317
		l26.632,38.047c2.869,4.098,4.407,8.979,4.407,13.981v16.455h15.352l31.673,88.159l0.095,0.263l0.104,0.259
		c8.339,20.868,1.343,44.733-16.943,57.795l-11.108,7.935h-50.686c-9.098,0-18.095-1.909-26.408-5.604l-57.382-25.503l-0.717-0.318
		l-0.744-0.248l-41.847-13.95c-5.18-1.727-10.457-2.602-15.683-2.602c-4.256,0-8.424,0.588-12.387,1.748
		c-24.171,7.073-41.02,29.684-40.873,54.933c0.181,31.02-25.868,56.558-56.888,56.559c-1.263,0-2.539-0.041-3.852-0.126
		l-0.805-0.051c-29.726-1.868-53.78-23.874-59.202-52.177c-0.737-3.279-1.159-6.677-1.159-10.179v-1.917v-49.328v-16.254H24.383
		v65.581c0,42.582,33.102,77.827,75.601,80.495l0.8,0.05c42.6,2.758,78.011-30.977,78.011-72.984v-0.022
		c0-18.464,12.321-34.049,29.188-38.984c5.997-1.754,12.434-1.301,18.362,0.675l41.846,13.95l57.382,25.503
		c10.392,4.619,21.637,7.005,33.009,7.005h50.686c3.387,0,6.69-1.059,9.446-3.027l11.12-7.943
		c24.38-17.414,33.703-49.234,22.576-77.051l-24.98-69.259c5.183,1.845,10.688,2.869,16.331,2.869h51.984
		c4.492,0,8.127-3.639,8.127-8.127S500.237,215.369,495.745,215.369z"/>
	<path style="fill:#4B3F4E;" d="M252.196,319.488c-16.393-9.144-36.229,1.094-38.798,19.077l-17.736,72.265
		c-0.099,0.381-0.188,0.817-0.267,1.293c-0.973,5.798,0.158,11.755,2.787,17.013l20.902,41.803l14.54-7.27l-16.592-37.561
		c-3.312-7.497-0.523-16.288,6.505-20.505l4.865-2.919c9.278-5.566,16.775-13.663,21.614-23.341l12.264-24.527
		C268.578,342.219,264.496,326.349,252.196,319.488z"/>
</g>
<path style="fill:#BE4150;" d="M271.051,475.431c-1.96,0-3.929-0.706-5.492-2.135c-2.984-2.734-7.976-5.992-14.825-5.992
	c-4.683,0-9.23,1.587-13.159,4.591c-3.008,2.31-6.492,3.536-10.063,3.536h-21.476c-4.492,0-8.127-3.639-8.127-8.127
	s3.635-8.127,8.127-8.127h21.476c14.921-11.516,35.46-10.302,49.031,2.135c3.309,3.032,3.532,8.175,0.5,11.484
	C275.44,474.542,273.249,475.431,271.051,475.431z"/>
<path style="fill:#4B3F4E;" d="M380.764,365.717v14.979c0,8.622,3.425,16.89,9.521,22.986l5.338,5.338
	c6.096,6.096,9.521,14.365,9.521,22.986v35.296h16.255V365.717c0-11.221-9.096-20.317-20.317-20.317l0,0
	C389.861,345.4,380.764,354.496,380.764,365.717z"/>
<path style="fill:#BE4150;" d="M457.97,475.431c-1.96,0-3.929-0.706-5.492-2.135c-2.984-2.734-7.976-5.992-14.825-5.992
	c-4.682,0-9.23,1.587-13.159,4.591c-3.008,2.31-6.492,3.536-10.063,3.536h-21.476c-4.492,0-8.127-3.639-8.127-8.127
	s3.635-8.127,8.127-8.127h21.476c14.921-11.516,35.46-10.302,49.031,2.135c3.31,3.032,3.532,8.175,0.5,11.484
	C462.359,474.542,460.169,475.431,457.97,475.431z"/>
<circle style="fill:#FFD164;" cx="455.109" cy="166.61" r="8.127"/>
<path style="fill:#BE4150;" d="M414.476,215.369h-24.381c-4.488,0-8.127-3.639-8.127-8.127l0,0c0-4.488,3.639-8.127,8.127-8.127
	h24.381c4.488,0,8.127,3.639,8.127,8.127l0,0C422.603,211.73,418.964,215.369,414.476,215.369z"/>
<path style="fill:#DC4655;" d="M414.476,182.861h-48.762c-4.488,0-8.127-3.639-8.127-8.127l0,0c0-4.488,3.639-8.127,8.127-8.127
	h48.762c4.488,0,8.127,3.639,8.127,8.127l0,0C422.603,179.222,418.964,182.861,414.476,182.861z"/>
<path style="fill:#E6646E;" d="M414.476,150.353h-73.142c-4.488,0-8.127-3.639-8.127-8.127l0,0c0-4.488,3.639-8.127,8.127-8.127
	h73.142c4.488,0,8.127,3.639,8.127,8.127l0,0C422.603,146.715,418.964,150.353,414.476,150.353z"/>
<path style="fill:#BE4150;" d="M55.053,291.738l-17.217-45.911c-1.846-4.922-8.808-4.922-10.653,0L9.966,291.738
	c-1.119,2.984-0.391,6.347,1.863,8.6l7.793,7.793c3.048,3.048,4.761,7.182,4.761,11.493V345.4c0,4.488,3.639,8.127,8.127,8.127l0,0
	c4.488,0,8.127-3.639,8.127-8.127v-25.775c0-4.311,1.712-8.445,4.761-11.493l7.793-7.793
	C55.444,298.085,56.172,294.722,55.053,291.738z"/>
<path style="fill:#DC4655;" d="M327.857,254.389c-11.999-9.23-19.031-23.511-19.031-38.65v-65.386L8.129,44.703
	c0,0,94.984,61.46,99.555,127.999c72.465,19.979,70.095,85.333,70.095,85.333s83.654-22.423,147.663,37.621
	c11.837,11.103,26.716,18.439,42.846,20.231l34.6,3.844c3.277,0.364,4.96-3.811,2.347-5.821L327.857,254.389z"/>
<path style="fill:#4B3F4E;" d="M412.99,309.626l-80.175-61.674c-10.001-7.694-15.862-19.596-15.862-32.214v-65.385
	c0-3.448-2.175-6.524-5.436-7.667L10.82,37.036c-4.23-1.5-8.873,0.734-10.357,4.972c-1.492,4.234,0.738,8.873,4.976,10.361
	l267.4,93.953L96.597,166.659c-4.46,0.516-7.659,4.548-7.143,9.008c0.476,4.143,3.992,7.194,8.063,7.194
	c0.31,0,0.627-0.016,0.937-0.052l183.951-21.226l-116.904,96.273c-3.468,2.853-3.96,7.976-1.103,11.44
	c1.603,1.952,3.929,2.96,6.278,2.96c1.817,0,3.643-0.607,5.159-1.853l124.864-102.828v48.155c0,17.665,8.205,34.328,22.206,45.098
	l80.178,61.676c3.557,2.736,8.659,2.07,11.394-1.488C417.211,317.461,416.546,312.361,412.99,309.626z"/>
<g>
</g>
<g>
</g>
<g>
</g>
<g>
</g>
<g>
</g>
<g>
</g>
<g>
</g>
<g>
</g>
<g>
</g>
<g>
</g>
<g>
</g>
<g>
</g>
<g>
</g>
<g>
</g>
<g>
</g>
</svg>
