<svg height="436pt" viewBox="-81 0 436 436.89984" width="436pt" xmlns="http://www.w3.org/2000/svg"><path d="m68.714844 348.160156c-7.535156 0-13.648438-6.113281-13.648438-13.65625v-116.054687h27.304688v116.054687c0 7.542969-6.113282 13.65625-13.65625 13.65625" fill="#d8d8d8"/><path d="m68.714844 348.160156v-6.832031c-3.765625-.003906-6.816406-3.058594-6.828125-6.824219v-109.226562h13.65625v109.226562c-.003907 3.765625-3.0625 6.820313-6.828125 6.824219v13.660156c11.3125-.007812 20.476562-9.167969 20.484375-20.484375v-116.054687c0-1.796875-.730469-3.550781-2.003907-4.824219-1.269531-1.269531-3.027343-2.003906-4.824218-2.003906h-27.304688c-1.800781 0-3.558594.734375-4.828125 2.003906-1.273437 1.273438-2 3.027344-2 4.824219v116.054687c.007813 11.316406 9.167969 20.476563 20.476563 20.484375z" fill="#54596e"/><path d="m68.714844 409.597656c-7.539063 0-13.652344-6.113281-13.652344-13.652344v-6.828124c0-7.539063 6.113281-13.652344 13.652344-13.652344 7.542968 0 13.65625 6.113281 13.65625 13.652344v6.828124c0 7.539063-6.113282 13.652344-13.65625 13.652344zm0 0" fill="#d8d8d8"/><path d="m68.714844 409.597656v-6.824218c-3.765625-.011719-6.816406-3.0625-6.824219-6.828126v-6.828124c.007813-3.765626 3.058594-6.820313 6.824219-6.828126 3.769531.007813 6.820312 3.0625 6.828125 6.828126v6.828124c-.007813 3.765626-3.058594 6.816407-6.828125 6.828126v13.648437c11.316406-.003906 20.476562-9.164063 20.480468-20.476563v-6.828124c-.003906-11.3125-9.164062-20.476563-20.480468-20.480469-11.3125.003906-20.472656 9.167969-20.476563 20.480469v6.828124c.003907 11.3125 9.164063 20.472657 20.476563 20.476563zm0 0" fill="#54596e"/><path d="m130.160156 430.078125c-7.542968 0-13.65625-6.113281-13.65625-13.65625v-163.839844h27.304688v163.839844c0 7.542969-6.113282 13.65625-13.648438 13.65625" fill="#d8d8d8"/><path d="m130.160156 430.078125v-6.828125c-3.773437-.003906-6.824218-3.0625-6.832031-6.828125v-157.011719h13.65625v157.011719c-.011719 3.765625-3.0625 6.824219-6.828125 6.828125v13.648438c11.3125 0 20.472656-9.164063 20.476562-20.476563v-163.839844c0-1.796875-.726562-3.550781-1.996093-4.824219-1.273438-1.273437-3.03125-1.996093-4.832031-1.996093h-27.300782c-1.796875 0-3.554687.722656-4.824218 1.996093-1.273438 1.273438-2.003907 3.027344-2.003907 4.824219v163.839844c.007813 11.3125 9.171875 20.476563 20.484375 20.476563z" fill="#54596e"/><path d="m184.769531 341.328125c-7.539062 0-13.652343-6.113281-13.652343-13.644531v-81.921875h27.304687v81.921875c0 7.53125-6.113281 13.644531-13.652344 13.644531" fill="#d8d8d8"/><path d="m184.769531 341.328125v-6.824219c-3.765625-.007812-6.816406-3.0625-6.828125-6.820312v-75.101563h13.65625v75.101563c-.007812 3.757812-3.058594 6.8125-6.828125 6.820312v13.65625c11.308594-.007812 20.476563-9.167968 20.480469-20.476562v-81.921875c0-1.804688-.730469-3.558594-2-4.832031-1.273438-1.269532-3.03125-1.996094-4.824219-1.996094h-27.304687c-1.804688 0-3.558594.726562-4.832032 1.996094-1.269531 1.273437-1.996093 3.027343-1.996093 4.832031v81.921875c.003906 11.308594 9.164062 20.46875 20.476562 20.476562z" fill="#54596e"/><path d="m266.6875 136.53125c0-71.636719-58.066406-129.703125-129.703125-129.703125-71.640625 0-129.707031 58.066406-129.707031 129.703125 0 71.632812 58.066406 129.707031 129.707031 129.707031 71.636719 0 129.703125-58.074219 129.703125-129.707031" fill="#fff"/><path d="m266.6875 136.53125h6.828125c-.003906-75.40625-61.125-136.53125-136.527344-136.53125-75.414062 0-136.535156 61.125-136.539062 136.53125.003906 75.410156 61.125 136.527344 136.535156 136.535156 75.40625-.007812 136.527344-61.125 136.53125-136.535156h-13.65625c0 33.953125-13.738281 64.632812-35.988281 86.886719-22.257813 22.246093-52.933594 35.988281-86.886719 35.992187-33.957031-.003906-64.632813-13.746094-86.890625-35.992187-22.25-22.253907-35.988281-52.933594-35.988281-86.886719 0-33.957031 13.738281-64.628906 35.988281-86.890625 22.257812-22.246094 52.933594-35.984375 86.890625-35.992187 33.953125.007812 64.628906 13.746093 86.886719 35.992187 22.25 22.261719 35.988281 52.933594 35.988281 86.890625z" fill="#54596e"/><path d="m14.351562 144.347656c1.929688 30.832032 15.214844 58.539063 35.746094 79.070313 22.253906 22.246093 52.929688 35.988281 86.890625 35.992187 33.953125-.003906 64.625-13.746094 86.882813-35.992187 20.53125-20.53125 33.8125-48.238281 35.746094-79.070313-17.421876 51.035156-65.691407 87.757813-122.628907 87.757813-56.945312 0-105.214843-36.722657-122.636719-87.757813" fill="#eeeef0"/><g fill="#54596e"><path d="m8.527344 119.464844c-.734375 5.601562-1.25 11.269531-1.25 17.066406 0 71.632812 58.074218 129.707031 129.710937 129.707031 71.628907 0 129.703125-58.074219 129.703125-129.707031h-4.679687c-.714844 2.640625-1.515625 5.246094-2.390625 7.816406-1.933594 30.832032-15.21875 58.539063-35.746094 79.070313-22.257812 22.246093-52.933594 35.988281-86.886719 35.992187-33.960937-.003906-64.632812-13.746094-86.890625-35.992187-20.53125-20.53125-33.8125-48.238281-35.746094-79.070313-2.726562-7.972656-4.691406-16.292968-5.824218-24.882812m256.910156 0c-.765625 5.816406-1.917969 11.515625-3.425781 17.066406h4.675781c0-5.796875-.511719-11.464844-1.25-17.066406"/><path d="m150.636719 88.746094c0 7.539062-6.113281 13.652344-13.652344 13.652344-7.542969 0-13.65625-6.113282-13.65625-13.652344 0-7.542969 6.113281-13.65625 13.65625-13.65625 7.539063 0 13.652344 6.113281 13.652344 13.65625zm0 0"/><path d="m116.503906 54.613281c-.003906-11.316406-9.167968-20.476562-20.480468-20.480469-11.3125.003907-20.476563 9.164063-20.480469 20.480469 0 3.769531 3.058593 6.824219 6.828125 6.824219 3.769531 0 6.824218-3.054688 6.824218-6.824219.007813-3.769531 3.0625-6.820312 6.828126-6.828125 3.765624.007813 6.820312 3.058594 6.828124 6.828125 0 3.769531 3.054688 6.824219 6.824219 6.824219s6.828125-3.054688 6.828125-6.824219zm0 0"/><path d="m191.597656 54.613281c-.007812-11.316406-9.167968-20.476562-20.480468-20.480469-11.3125.003907-20.476563 9.164063-20.480469 20.480469 0 3.769531 3.054687 6.824219 6.828125 6.824219 3.769531 0 6.824218-3.054688 6.824218-6.824219.007813-3.769531 3.0625-6.820312 6.828126-6.828125 3.765624.007813 6.820312 3.058594 6.824218 6.828125 0 3.769531 3.058594 6.824219 6.828125 6.824219s6.828125-3.054688 6.828125-6.824219zm0 0"/></g></svg>