<?xml version="1.0" encoding="iso-8859-1"?>
<!-- Generator: Adobe Illustrator 22.1.0, SVG Export Plug-In . SVG Version: 6.00 Build 0)  -->
<svg xmlns="http://www.w3.org/2000/svg" xmlns:xlink="http://www.w3.org/1999/xlink" version="1.1" id="Layer_3" x="0px" y="0px" viewBox="0 0 64 64" style="enable-background:new 0 0 64 64;" xml:space="preserve" width="512" height="512">
<g>
	<g>
		<path style="fill:#E25341;" d="M14,52l-7,5l0.021,0.021C10.209,60.209,14.533,62,19.042,62H20v-7.301"/>
	</g>
	<g>
		<path style="fill:#E25341;" d="M50,52l7,5l-0.021,0.021C53.791,60.209,49.467,62,44.958,62H44v-7.477"/>
	</g>
	<g>
		<path style="fill:#E25341;" d="M20.356,15.434l-0.412-0.504C17.391,11.739,16,7.773,16,3.686V2l-3.111,3.63    C11.025,7.805,10,10.575,10,13.439v0.374c0,2.088,0.545,4.14,1.581,5.954L14,24"/>
	</g>
	<g>
		<path style="fill:#E25341;" d="M43.588,15.443l0.468-0.512C46.609,11.739,48,7.773,48,3.686V2l3.111,3.63    C52.975,7.805,54,10.575,54,13.439v0.374c0,2.088-0.545,4.14-1.581,5.954L50,24"/>
	</g>
	<g>
		<path style="fill:#9037AA;" d="M55,41c0,12.703-10.297,15-23,15S9,53.703,9,41s10.297-31,23-31S55,28.297,55,41z"/>
	</g>
	<g>
		<path style="fill:#612694;" d="M24.542,24.153C20.871,25.376,17.027,26,13.158,26H13h-0.255c-0.778,1.636-1.451,3.315-2.001,5H11    h0.857c4.739,0,9.454,0.66,14.011,1.962L26,33l-0.847-9.058L24.542,24.153z"/>
	</g>
	<g>
		<path style="fill:#612694;" d="M53,31h0.256c-0.55-1.685-1.223-3.364-2.001-5H51h-0.158c-3.869,0-7.713-0.624-11.384-1.847    l-0.677-0.228L38,33l0.132-0.038C42.688,31.66,47.404,31,52.143,31H53z"/>
	</g>
	<g>
		<path style="fill:#612694;" d="M15,41c0-2.761-2.239-5-5-5c-0.18,0-0.358,0.01-0.534,0.028C9.161,37.742,9,39.414,9,41    c0,1.885,0.232,3.535,0.659,4.988C9.772,45.996,9.885,46,10,46C12.761,46,15,43.761,15,41z"/>
	</g>
	<g>
		<path style="fill:#612694;" d="M38.932,11.825C36.744,10.665,34.416,10,32,10c-1.002,0-1.988,0.126-2.956,0.342    C29.015,10.558,29,10.777,29,11c0,2.761,2.239,5,5,5C36.48,16,38.539,14.194,38.932,11.825z"/>
	</g>
	<g>
		<path style="fill:#612694;" d="M54.747,37.401C54.219,37.144,53.626,37,53,37c-2.209,0-4,1.791-4,4c0,2.209,1.791,4,4,4    c0.595,0,1.16-0.131,1.667-0.364C54.882,43.529,55,42.324,55,41C55,39.841,54.912,38.635,54.747,37.401z"/>
	</g>
	<g>
		<path style="fill:#39474E;" d="M46,48c0,3.314-6.268,4-14,4s-14-0.686-14-4s6.268-8,14-8S46,44.686,46,48z"/>
	</g>
	<g>
		<path style="fill:#B63830;" d="M32,52c2.964,0,5.709-0.103,7.972-0.414C39.687,48.466,36.232,46,32,46s-7.687,2.466-7.972,5.586    C26.291,51.897,29.036,52,32,52z"/>
	</g>
	<g>
		<path style="fill:#FFFFFF;" d="M22,47l4-2l-0.927-3.709c-2.003,0.771-3.69,1.816-4.916,2.943L22,47z"/>
	</g>
	<g>
		<path style="fill:#FFFFFF;" d="M43.844,44.235c-1.226-1.127-2.914-2.172-4.916-2.943L38,45l4,2L43.844,44.235z"/>
	</g>
	<g>
		<circle style="fill:#FFFFFF;" cx="32" cy="28" r="8"/>
	</g>
	<g>
		<circle style="fill:#39474E;" cx="32" cy="28" r="4"/>
	</g>
	<g>
		<path style="fill:#D73964;" d="M14,56.657c0,0.92-0.623,1.718-1.515,1.941l-2.671,0.668c0.84,0.543,1.721,1.015,2.639,1.401    l0.516-0.129c1.784-0.445,3.03-2.042,3.03-3.881V56h-2V56.657z"/>
	</g>
	<g>
		<path style="fill:#D73964;" d="M51.515,58.599C50.623,58.375,50,57.577,50,56.657V56h-2v0.657c0,1.839,1.246,3.436,3.03,3.881    l0.516,0.129c0.918-0.386,1.799-0.858,2.639-1.401L51.515,58.599z"/>
	</g>
	<g>
		<polygon style="fill:none;" points="21,36 21,36 21,36 21,36   "/>
	</g>
</g>
</svg>
