<?xml version="1.0" encoding="iso-8859-1"?>
<!-- Generator: Adobe Illustrator 19.0.0, SVG Export Plug-In . SVG Version: 6.00 Build 0)  -->
<svg version="1.1" id="Capa_1" xmlns="http://www.w3.org/2000/svg" xmlns:xlink="http://www.w3.org/1999/xlink" x="0px" y="0px"
	 viewBox="0 0 480.005 480.005" style="enable-background:new 0 0 480.005 480.005;" xml:space="preserve">
<g>
	<path style="fill:#7FCAC9;" d="M128.003,240.005h-16v-80h72v16h-56V240.005z"/>
	<path style="fill:#7FCAC9;" d="M368.003,176.005h-72v-16h56v-64h16V176.005z"/>
	<path style="fill:#7FCAC9;" d="M104.003,456.005c-2.122,0-4.156-0.844-5.656-2.344l-40-40c-3.07-3.178-2.982-8.242,0.196-11.312
		c3.1-2.995,8.016-2.995,11.116,0l32.688,32.688l74.76-127.088c2.24-3.809,7.143-5.08,10.952-2.84
		c3.809,2.24,5.08,7.143,2.84,10.952l0,0l-80,136c-1.254,2.133-3.425,3.566-5.88,3.88
		C104.682,455.982,104.342,456.004,104.003,456.005L104.003,456.005z"/>
	<path style="fill:#7FCAC9;" d="M376.003,456.005c-0.34-0.002-0.679-0.023-1.016-0.064c-2.455-0.314-4.626-1.747-5.88-3.88l-80-136
		c-2.24-3.809-0.969-8.712,2.84-10.952c3.809-2.24,8.712-0.969,10.952,2.84l0,0l74.76,127.088l32.688-32.688
		c3.178-3.07,8.242-2.982,11.312,0.196c2.995,3.1,2.995,8.016,0,11.116l-40,40C380.159,455.162,378.124,456.005,376.003,456.005z"/>
</g>
<circle style="fill:#FFD782;" cx="240.003" cy="96.005" r="72"/>
<g>
	<path style="fill:#E9686A;" d="M184.003,168.005h112v144h-112V168.005z"/>
	<path style="fill:#E9686A;" d="M304.003,320.005h-128v-160h128V320.005z M192.003,304.005h96v-128h-96V304.005z"/>
</g>
<path style="fill:#FDBD40;" d="M408.003,96.005c-4.418,0-8-3.582-8-8c-0.026-22.08-17.92-39.974-40-40c-4.418,0-8-3.582-8-8
	s3.582-8,8-8c30.911,0.04,55.96,25.089,56,56C416.003,92.424,412.421,96.005,408.003,96.005z"/>
<g>
	<circle style="fill:#FFD782;" cx="360.003" cy="88.005" r="16"/>
	<path style="fill:#FFD782;" d="M360.003,112.005c-13.255,0-24-10.745-24-24s10.745-24,24-24s24,10.745,24,24
		S373.258,112.005,360.003,112.005z M360.003,80.005c-4.418,0-8,3.582-8,8s3.582,8,8,8s8-3.582,8-8S364.421,80.005,360.003,80.005z"
		/>
</g>
<path style="fill:#FDBD40;" d="M120.003,304.005c-30.911-0.04-55.96-25.089-56-56c0-4.418,3.582-8,8-8s8,3.582,8,8
	c0.026,22.08,17.92,39.974,40,40c4.418,0,8,3.582,8,8S124.421,304.005,120.003,304.005z"/>
<g>
	<circle style="fill:#FFD782;" cx="120.003" cy="248.005" r="16"/>
	<path style="fill:#FFD782;" d="M120.003,272.005c-13.255,0-24-10.745-24-24c0-13.255,10.745-24,24-24s24,10.745,24,24
		C144.003,261.26,133.258,272.005,120.003,272.005z M120.003,240.005c-4.418,0-8,3.582-8,8s3.582,8,8,8s8-3.582,8-8
		S124.421,240.005,120.003,240.005z"/>
</g>
<g>
	<path style="fill:#5A6470;" d="M200.003,64.005h16v16h-16V64.005z"/>
	<path style="fill:#5A6470;" d="M264.003,64.005h16v16h-16V64.005z"/>
</g>
<path style="fill:#E9686A;" d="M208.003,104.005h64l-32,32L208.003,104.005z"/>
<g>
	<circle style="fill:#FDBD40;" cx="24.003" cy="88.005" r="16"/>
	<path style="fill:#FDBD40;" d="M24.003,112.005c-13.255,0-24-10.745-24-24s10.745-24,24-24s24,10.745,24,24
		S37.258,112.005,24.003,112.005z M24.003,80.005c-4.418,0-8,3.582-8,8s3.582,8,8,8s8-3.582,8-8S28.421,80.005,24.003,80.005z"/>
	<path style="fill:#FDBD40;" d="M40.003,96.005c-4.418,0-8-3.582-8-8v-80C32,5.432,33.236,3.015,35.323,1.509
		c2.081-1.51,4.766-1.916,7.2-1.088c13.99,4.673,27.696,10.156,41.048,16.424c3.954,1.975,5.559,6.782,3.584,10.736
		s-6.782,5.559-10.736,3.584c-9.263-4.434-18.747-8.388-28.416-11.848v68.688C48.003,92.424,44.421,96.005,40.003,96.005z"/>
	<circle style="fill:#FDBD40;" cx="456.003" cy="456.005" r="16"/>
	<path style="fill:#FDBD40;" d="M456.003,480.005c-13.255,0-24-10.745-24-24s10.745-24,24-24s24,10.745,24,24
		S469.258,480.005,456.003,480.005z M456.003,448.005c-4.418,0-8,3.582-8,8s3.582,8,8,8s8-3.582,8-8
		S460.421,448.005,456.003,448.005z"/>
	<path style="fill:#FDBD40;" d="M464.003,368.005h16v88h-16V368.005z"/>
</g>
<g>
</g>
<g>
</g>
<g>
</g>
<g>
</g>
<g>
</g>
<g>
</g>
<g>
</g>
<g>
</g>
<g>
</g>
<g>
</g>
<g>
</g>
<g>
</g>
<g>
</g>
<g>
</g>
<g>
</g>
</svg>
