<svg height="389pt" viewBox="-64 0 389 389.28" width="389pt" xmlns="http://www.w3.org/2000/svg"><path d="m20.726562 0h219.40625c11.371094 0 20.585938 9.21875 20.585938 20.589844v348.101562c0 11.371094-9.214844 20.589844-20.585938 20.589844h-219.40625c-11.367187 0-20.585937-9.21875-20.585937-20.589844v-348.101562c0-11.371094 9.21875-20.589844 20.585937-20.589844zm0 0" fill="#5d5360"/><path d="m240.132812 0h-23.542968c11.367187 0 20.585937 9.21875 20.585937 20.589844v348.097656c0 11.371094-9.21875 20.589844-20.585937 20.589844h23.542968c11.371094 0 20.585938-9.21875 20.585938-20.589844v-348.097656c0-11.371094-9.214844-20.589844-20.585938-20.589844zm0 0" fill="#4c434f"/><g fill="#857e87"><path d="m54.039062 38.742188c0 8.382812-6.792968 15.179687-15.175781 15.179687-8.378906 0-15.175781-6.796875-15.175781-15.179687 0-8.378907 6.796875-15.175782 15.175781-15.175782 8.382813 0 15.175781 6.796875 15.175781 15.175782zm0 0"/><path d="m237.175781 38.742188c0 8.382812-6.792969 15.179687-15.175781 15.179687s-15.175781-6.796875-15.175781-15.179687c0-8.378907 6.792969-15.175782 15.175781-15.175782s15.175781 6.796875 15.175781 15.175782zm0 0"/><path d="m54.039062 350.535156c0 8.382813-6.792968 15.175782-15.175781 15.175782-8.378906 0-15.175781-6.792969-15.175781-15.175782 0-8.378906 6.796875-15.175781 15.175781-15.175781 8.382813 0 15.175781 6.796875 15.175781 15.175781zm0 0"/><path d="m237.175781 350.535156c0 8.382813-6.792969 15.175782-15.175781 15.175782s-15.175781-6.792969-15.175781-15.175782c0-8.378906 6.792969-15.175781 15.175781-15.175781s15.175781 6.796875 15.175781 15.175781zm0 0"/></g><path d="m38.863281 23.5625c-1.789062.015625-3.558593.347656-5.230469.984375 5.980469 2.164063 9.964844 7.839844 9.964844 14.199219 0 6.363281-3.984375 12.039062-9.964844 14.203125 5.683594 2.101562 12.074219.613281 16.25-3.785157 4.171876-4.398437 5.320313-10.859374 2.925782-16.425781-2.398438-5.566406-7.882813-9.171875-13.945313-9.164062zm0 0" fill="#736b75"/><path d="m222 23.5625c-1.789062.015625-3.558594.347656-5.230469.984375 5.980469 2.164063 9.964844 7.839844 9.964844 14.199219 0 6.363281-3.984375 12.039062-9.964844 14.203125 5.683594 2.101562 12.074219.613281 16.246094-3.785157 4.171875-4.398437 5.324219-10.859374 2.925781-16.425781-2.394531-5.566406-7.878906-9.171875-13.941406-9.164062zm0 0" fill="#736b75"/><path d="m38.863281 335.359375c-1.789062.015625-3.558593.347656-5.230469.984375 5.980469 2.164062 9.964844 7.839844 9.964844 14.199219s-3.984375 12.039062-9.964844 14.199219c5.683594 2.101562 12.074219.613281 16.25-3.78125 4.171876-4.398438 5.320313-10.859376 2.925782-16.425782-2.398438-5.570312-7.882813-9.171875-13.945313-9.164062zm0 0" fill="#736b75"/><path d="m222 335.359375c-1.789062.015625-3.558594.347656-5.230469.984375 5.980469 2.164062 9.964844 7.839844 9.964844 14.199219s-3.984375 12.039062-9.964844 14.199219c5.683594 2.101562 12.074219.613281 16.246094-3.78125 4.171875-4.398438 5.324219-10.859376 2.925781-16.425782-2.394531-5.570312-7.878906-9.171875-13.941406-9.164062zm0 0" fill="#736b75"/><path d="m130.433594 51.691406c-30.179688 0-54.640625 24.464844-54.640625 54.640625 0 30.179688 24.464843 54.640625 54.640625 54.640625 30.179687-.003906 54.640625-24.46875 54.636718-54.644531 0-30.175781-24.460937-54.636719-54.636718-54.636719zm0 71.234375c-9.164063 0-16.59375-7.429687-16.59375-16.59375 0-9.164062 7.429687-16.59375 16.59375-16.59375 9.160156 0 16.589844 7.429688 16.589844 16.59375 0 9.164063-7.429688 16.59375-16.589844 16.59375zm0 0" fill="#eae3d3"/><path d="m130.433594 188.160156c-41.261719 0-74.710938 33.449219-74.714844 74.710938 0 41.261718 33.449219 74.710937 74.710938 74.714844 41.261718 0 74.710937-33.449219 74.714843-74.710938 0-41.261719-33.449219-74.714844-74.710937-74.714844zm0 91.308594c-9.164063 0-16.59375-7.429688-16.59375-16.59375s7.429687-16.589844 16.59375-16.589844c9.160156 0 16.589844 7.425782 16.589844 16.589844s-7.429688 16.59375-16.589844 16.59375zm0 0" fill="#eae3d3"/><path d="m130.433594 51.691406c-2.78125.023438-5.554688.253906-8.296875.695313 26.65625 4.0625 46.347656 26.980469 46.347656 53.941406 0 26.964844-19.691406 49.882813-46.347656 53.945313 20.269531 3.121093 40.578125-5.378907 52.582031-22.007813 12.007812-16.625 13.683594-38.578125 4.34375-56.835937-9.339844-18.257813-28.121094-29.742188-48.628906-29.738282zm0 0" fill="#e0d4ba"/><path d="m130.433594 188.160156c-2.773438.007813-5.542969.171875-8.296875.488282 37.8125 4.214843 66.410156 36.179687 66.410156 74.226562s-28.597656 70.011719-66.410156 74.230469c27.511719 3.078125 54.472656-9.308594 70.058593-32.191407 15.582032-22.882812 17.234376-52.507812 4.289063-76.980468-12.949219-24.472656-38.367187-39.78125-66.050781-39.773438zm0 0" fill="#e0d4ba"/><path d="m147.632812 372.617188h-34.402343c-4.417969 0-8-3.582032-8-8 0-4.417969 3.582031-8 8-8h34.402343c4.417969 0 8 3.582031 8 8 0 4.417968-3.582031 8-8 8zm0 0" fill="#4c434f"/><path d="m147.632812 32.664062h-34.402343c-4.417969 0-8-3.582031-8-8 0-4.417968 3.582031-8 8-8h34.402343c4.417969 0 8 3.582032 8 8 0 4.417969-3.582031 8-8 8zm0 0" fill="#4c434f"/></svg>