<svg id="Capa_1" enable-background="new 0 0 511.998 511.998" height="512" viewBox="0 0 511.998 511.998" width="512" xmlns="http://www.w3.org/2000/svg"><g><g><g clip-rule="evenodd" fill-rule="evenodd"><path d="m365.065 257.734c-43.267 24.508-98.208 9.3-122.715-33.969-24.506-43.267-9.298-98.208 33.97-122.715 43.265-24.505 98.209-9.298 122.714 33.97 24.505 43.269 9.296 98.209-33.969 122.714zm-148.191-19.538c29.244 51.633 91.223 73.115 145.132 53.149 5.945-2.201 11.794-4.907 17.488-8.134 5.696-3.225 11.023-6.849 15.968-10.817 44.846-35.969 58.291-100.171 29.048-151.804-11.326-19.995-27.56-35.469-46.334-45.765-35.051-19.221-78.954-20.396-116.286.748-57.328 32.472-77.486 105.293-45.016 162.623z" fill="#ed9b88"/><path d="m242.349 223.766c24.507 43.269 79.448 58.476 122.715 33.968 43.266-24.506 58.475-79.445 33.969-122.715-24.505-43.267-79.448-58.474-122.714-33.968-43.267 24.507-58.475 79.447-33.97 122.715z" fill="#f7ec91"/><path d="m362.006 291.345 16.17 28.546 12.326 21.762 33.455-18.949-28.494-50.309c-4.946 3.967-10.273 7.591-15.969 10.817-5.694 3.226-11.543 5.931-17.488 8.133z" fill="#d0dbef"/><path d="m381.279 346.878 66.016 116.558 22.59 6.252 11.53-6.529 11.532-6.531 6.253-22.588-66.019-116.562c-17.303 9.801-34.602 19.602-51.902 29.4z" fill="#ed9b88"/><path d="m376.72 237.709c-87.012 49.291-173.29-74.271-96.461-138.764-54.677 27.493-66.05 102.931-21.935 145.354 45.296 43.559 122.803 26.941 146.042-31.657-7.194 10.262-16.745 18.893-27.646 25.067z" fill="#edd52e"/><path d="m390.502 341.654 11.188-6.342 5.54-3.133-27.736-48.967c-5.694 3.226-11.543 5.931-17.488 8.133l16.17 28.546z" fill="#c7cfd9"/><path d="m108.831 323.614h30v90.599h-30zm59.996-19.696h30v110.294h-30zm-119.996 55.147h30.001v55.147h-30.001zm-36.59-351.565v440.586h56.413v56.412h309.521v-184.608l-16.17-28.545c-53.909 19.965-115.888-1.516-145.133-53.15-32.469-57.329-12.311-130.151 45.017-162.622 37.332-21.145 81.235-19.972 116.286-.749v-67.324c-121.976-.005-243.956 0-365.934 0z" fill="#a7eed4"/><path d="m12.241 448.087 56.413 56.411v-56.411z" fill="#d0dbef"/><path d="m48.831 359.065h15v55.147h-15z" fill="#e76c4c"/><path d="m108.831 323.613h15v90.599h-15z" fill="#c7cfd9"/><path d="m168.827 303.918h15v110.294h-15z" fill="#edd52e"/><path d="m254.003 61.651c-64.917 36.768-87.821 119.515-51.053 184.432 17.74 31.32 46.958 54.117 81.644 63.718 22.851 6.325 47.001 6.534 69.847.655l14.251 25.16-9.224 5.224 18.708 33.032v-53.982l-16.17-28.545c-53.909 19.965-115.888-1.516-145.133-53.15-32.47-57.329-12.311-130.151 45.017-162.622 37.332-21.144 81.235-19.971 116.286-.749v-17.939c-39.547-18.54-85.749-16.999-124.173 4.766z" fill="#71e4bf"/><path d="m12.241 7.5h29.995v440.586h-29.995z" fill="#71e4bf"/><path d="m68.655 448.086h29.995v56.412h-29.995z" fill="#71e4bf"/><path d="m183.826 303.918h15v110.294h-15z" fill="#f7ec91"/><path d="m123.831 323.613h15v90.599h-15z" fill="#d0dbef"/><path d="m63.831 359.065h15v55.147h-15z" fill="#ed9b88"/><path d="m407.229 332.18-16.727 9.474-9.223 5.224 66.016 116.559 22.59 6.251 11.53-6.529z" fill="#e76c4c"/></g><g><path d="m355.676 481.998h-57.232v-15h42.232v-15.01h15z" fill="#fefefe"/></g><g><path d="m387.37 189.998-14.813-2.368c.998-6.242.872-12.529-.374-18.685l14.701-2.977c1.605 7.923 1.768 16.007.486 24.03zm-19.374-33.462c-.494-1.02-1.029-2.041-1.592-3.035-5.102-9.005-12.662-16.234-21.866-20.907l6.789-13.375c11.843 6.012 21.569 15.31 28.128 26.889.722 1.274 1.409 2.584 2.043 3.894z" fill="#fff"/></g><g><path d="m268.443 466.998h14.999v15h-14.999z" fill="#fff"/></g><g><path d="m457.963 436.972-7.374-13.037 13.057-7.385 7.374 13.037zm-14.636-25.886-23.466-41.383 13.049-7.398 23.466 41.383z" fill="#fff"/></g><g><path d="m49.741 67.5h-15v-37.5h52.5v15h-37.5zm67.5-22.5h-15v-15h15z" fill="#fff"/></g></g><g><path d="m436.01 307.256-9.223 5.224-21.729-38.364c18.106-16.063 31.236-37.009 37.847-60.893 9.037-32.649 4.822-66.859-11.87-96.329-11.232-19.832-27.044-35.476-45.359-46.368v-70.526h-52.327v15h37.327v47.907c-35.167-15.042-76.708-14.121-112.482 6.141-60.843 34.462-82.307 112-47.846 172.846 23.313 41.158 66.325 64.292 110.558 64.292 12.585 0 25.269-1.891 37.626-5.757l12.144 21.44v175.13h-294.522v-56.412h-56.413v-30.729h-15v41.337l60.808 60.804h320.127v-142.139l56.624 99.977 28.578 7.907 28.469-16.121 7.91-28.578zm-374.856 179.135-30.807-30.805h30.807zm162.245-251.891c-30.385-53.648-11.46-122.016 42.187-152.401 53.646-30.382 122.013-11.46 152.398 42.188 14.717 25.983 18.434 56.147 10.464 84.935-7.969 28.788-26.667 52.747-52.651 67.464-53.649 30.385-122.013 11.46-152.398-42.186zm159.79 55.238c3.428-1.942 6.74-4.031 9.938-6.249l20.607 36.385-20.404 11.557-20.613-36.393c3.536-1.593 7.032-3.352 10.472-5.3zm103.359 161.895-17.656 9.998-16.602-4.594-60.79-107.33 38.852-22.006 60.792 107.331z"/><path d="m405.559 131.323c-12.84-22.668-33.738-38.98-58.847-45.931-25.112-6.951-51.422-3.707-74.09 9.133-46.796 26.504-63.304 86.139-36.8 132.937 12.84 22.669 33.739 38.982 58.848 45.932 8.648 2.394 17.435 3.578 26.17 3.578 16.627 0 33.059-4.294 47.92-12.712 46.795-26.505 63.303-86.14 36.799-132.937zm-44.191 119.885c-19.183 10.865-41.448 13.61-62.695 7.73-21.247-5.881-38.933-19.685-49.798-38.868-22.429-39.601-8.459-90.065 31.141-112.493 12.577-7.124 26.478-10.756 40.549-10.756 7.391 0 14.83 1.002 22.146 3.028 21.247 5.881 38.932 19.685 49.796 38.867 22.428 39.599 8.46 90.064-31.139 112.492z"/><path d="m41.331 421.711h45.002v-70.147h-45.002zm15-55.147h15.002v40.147h-15.002z"/><path d="m146.332 421.713v-105.599h-45v105.599zm-30-90.599h15v75.599h-15z"/><path d="m161.327 421.711h45v-125.293h-45zm15-110.293h15v95.293h-15z"/><path d="m19.741 15h298.607v-15h-313.607v394.856h15z"/><path d="m268.443 466.998h14.999v15h-14.999z"/><path d="m355.676 451.988h-15v15.01h-42.232v15h57.232z"/><path d="m261.851 406.709h15.001v15h-15.001z"/><path d="m231.849 406.709h15.001v15h-15.001z"/><path d="m291.854 406.709h49.729v15h-49.729z"/><path d="m231.85 373.51h109.734v15h-109.734z"/><path d="m231.848 340.31h48.62v15h-48.62z"/><path d="m295.469 340.31h46.113v15h-46.113z"/><path d="m167.693 212.399h-16.59v-125.865h-15v125.865h-16.59v-78.033h-15v78.033h-16.59v-37.798h-15v37.798h-16.591v-20.356h-15v35.356h141.361v-160.561h-15z"/></g></g></svg>